<svg t="1585028225514" class="icon" viewBox="0 0 1024 1024" version="1.1" xmlns="http://www.w3.org/2000/svg" p-id="12856" width="200" height="200"><path d="M492.311631 512A256.354462 256.354462 0 0 1 236.311631 256C236.311631 114.884923 351.0784 0 492.311631 0S748.311631 114.884923 748.311631 256 633.426708 512 492.311631 512zM20.562708 1024A20.992 20.992 0 0 1 0.003938 1002.614154v-172.701539C0.003938 697.816615 102.955323 590.769231 230.010092 590.769231h563.987693c127.054769 0 230.006154 107.047385 230.006153 239.143384v172.701539a20.992 20.992 0 0 1-20.676923 21.385846H20.562708z m697.856-123.195077l3.426461 1.614769c3.662769 1.614769 7.719385 3.032615 11.776 4.883693l3.662769 1.181538a17.526154 17.526154 0 0 1 11.736616 16.462769v1.417846c0 10.555077 8.349538 18.865231 18.904615 18.865231a18.707692 18.707692 0 0 0 18.825846-18.865231v-1.417846c0-7.483077 4.883692-14.178462 11.815385-16.423384l3.623385-1.220923c3.662769-1.220923 7.876923-3.032615 11.776-4.883693l3.426461-1.614769a19.022769 19.022769 0 0 1 20.086154 3.032615l13.390769 13.39077c0.196923 0.196923 0.393846 0.393846 1.024 0.393846 0.393846 0 1.024-0.196923 1.024-0.393846l24.930462-24.930462c0.196923-0.236308 0.393846-0.393846 0.393846-1.024s0-1.024-0.393846-1.024l-13.390769-13.390769a17.171692 17.171692 0 0 1-3.032616-20.086154l1.614769-3.426461c1.614769-3.662769 3.032615-7.719385 4.883693-11.815385l1.181538-3.623385a17.526154 17.526154 0 0 1 16.462769-11.776h1.417847a18.707692 18.707692 0 0 0 18.86523-18.86523 18.707692 18.707692 0 0 0-18.86523-18.865231h-1.417847a17.329231 17.329231 0 0 1-16.423384-11.736616l-1.220923-3.662769c-1.220923-3.662769-3.032615-7.916308-4.883693-11.776l-1.614769-3.426461a19.022769 19.022769 0 0 1 3.032616-20.086154l13.390769-13.390769c0.196923-0.196923 0.393846-0.393846 0.393846-1.024 0-0.393846 0-1.024-0.393846-1.024l-24.930462-24.930462c-0.236308-0.196923-0.393846-0.393846-1.024-0.393846-0.393846 0-1.024 0-1.024 0.393846l-13.390769 13.390769a17.171692 17.171692 0 0 1-20.086154 3.032616l-3.426461-1.61477c-3.662769-1.654154-7.719385-3.072-11.815385-4.883692l-3.623385-1.181538a17.526154 17.526154 0 0 1-11.972923-16.46277v-1.220923a18.707692 18.707692 0 0 0-18.86523-18.86523 18.707692 18.707692 0 0 0-18.865231 18.86523v1.417846a17.329231 17.329231 0 0 1-11.776 16.423385l-3.623385 1.220923c-3.662769 1.220923-7.916308 3.032615-11.776 4.883692l-3.465846 1.61477a19.022769 19.022769 0 0 1-20.086154-3.032616l-13.390769-13.390769c-0.196923-0.196923-0.393846-0.393846-0.984615-0.393846-0.393846 0-1.024 0-1.024 0.393846l-24.536616 24.930462c-0.196923 0.236308-0.393846 0.393846-0.393846 1.024 0 0.393846 0 1.024 0.393846 1.024l13.390769 13.390769c5.080615 5.080615 6.695385 13.390769 3.032616 20.086154l-1.614769 3.426461c-1.614769 3.465846-3.032615 7.719385-4.883693 11.815385l-1.181538 3.623384a17.526154 17.526154 0 0 1-16.462769 11.776h-1.417847a18.707692 18.707692 0 0 0-18.86523 18.865231c0 10.515692 8.310154 18.865231 18.86523 18.865231h1.417847c7.483077 0 14.178462 4.844308 16.423384 11.736615l1.220923 3.66277c1.220923 3.662769 3.032615 7.916308 4.883693 11.776l1.614769 3.426461a18.235077 18.235077 0 0 1-3.032616 20.086154l-13.390769 13.390769c-0.196923 0.196923-0.393846 0.393846-0.393846 1.024 0 0.393846 0 1.024 0.393846 1.024l24.930462 24.930462c0.236308 0.196923 0.393846 0.393846 1.024 0.393846 0.393846 0 1.024 0 1.024-0.393846l13.193846-13.587693a17.171692 17.171692 0 0 1 20.086154-3.032615z m49.58523-135.010461c20.873846 0 37.139692 16.935385 37.612308 37.572923 0 20.676923-16.935385 37.612308-37.612308 37.612307a37.730462 37.730462 0 0 1-37.612307-37.612307c0-20.637538 17.171692-37.572923 37.612307-37.572923z" p-id="12857"></path></svg>