<svg t="1584092701982" class="icon" viewBox="0 0 1024 1024" version="1.1" xmlns="http://www.w3.org/2000/svg" p-id="1975" width="128" height="128"><path d="M331.59999999 893.6c-18.2 18.5-18.2 48.1 1e-8 66.6 8.7 8.8 20.6 13.8 33 13.8 12.4 0 24.2-5 32.9-13.8L772.40000001 581.4l18.29999999-18.5c26.4-26.6 26.4-69.5 0-96.1l-18.3-18.5-374.9-378.7c-18.2-18.4-47.7-18.4-65.9 0-18.2 18.5-18.2 48.1-1e-8 66.6L684.5 492.7c12.2 12.3 12.2 32.10000001 0 44.29999999l-352.90000001 356.60000001z" fill="#bfbfbf" p-id="1976"></path></svg>