<svg t="1585015836663" class="icon" viewBox="0 0 1024 1024" version="1.1" xmlns="http://www.w3.org/2000/svg" p-id="7525" width="200" height="200"><path d="M748.180645 658.993548h-275.819355c-56.154839 0-102.4 46.245161-102.4 102.4v9.909678c0 56.154839 46.245161 102.4 102.4 102.4h275.819355c56.154839 0 102.4-46.245161 102.4-102.4v-9.909678c0-56.154839-46.245161-102.4-102.4-102.4z m-270.864516 178.374194c-39.63871 0-71.019355-31.380645-71.019355-71.019355s31.380645-71.019355 71.019355-71.019355 71.019355 31.380645 71.019355 71.019355-31.380645 71.019355-71.019355 71.019355zM748.180645 325.367742h-275.819355c-56.154839 0-102.4 46.245161-102.4 102.4v9.909677c0 56.154839 46.245161 102.4 102.4 102.4h275.819355c56.154839 0 102.4-46.245161 102.4-102.4v-9.909677c0-56.154839-46.245161-102.4-102.4-102.4z m-6.606451 178.374193c-39.63871 0-71.019355-31.380645-71.019355-71.019354s31.380645-71.019355 71.019355-71.019355 71.019355 31.380645 71.019354 71.019355-31.380645 71.019355-71.019354 71.019354z" p-id="7526"></path><path d="M905.083871 191.587097h-16.516129c-11.56129-46.245161-49.548387-82.580645-95.793548-89.187097-14.864516-49.548387-61.109677-85.883871-115.612904-85.883871h-549.987096c-66.064516 0-120.567742 54.503226-120.567742 120.567742v551.63871c0 59.458065 42.941935 109.006452 99.096774 118.916129 13.212903 42.941935 49.548387 75.974194 95.793548 84.232258v4.954838c0 62.76129 51.2 112.309677 112.309678 112.309678h589.625806c62.76129 0 112.309677-51.2 112.309677-112.309678V305.548387C1017.393548 242.787097 967.845161 191.587097 905.083871 191.587097zM100.748387 221.316129V776.258065c-37.987097-13.212903-66.064516-47.896774-66.064516-89.187097V137.083871c0-49.548387 41.290323-90.83871 90.83871-90.83871H677.16129c37.987097 0 69.367742 23.122581 82.580645 54.503226h-538.425806c-66.064516 0-120.567742 54.503226-120.567742 120.567742z m102.4 82.580645V858.83871c-42.941935-8.258065-72.670968-44.593548-72.670968-87.535484V219.664516c0-49.548387 41.290323-90.83871 90.83871-90.83871h551.63871c39.63871 0 74.322581 26.425806 85.883871 62.761291h-543.380645c-62.76129 0-112.309677 51.2-112.309678 112.309677z m668.903226 469.058065c0 67.716129-56.154839 123.870968-123.870968 123.870967h-275.819355c-67.716129 0-123.870968-56.154839-123.870967-123.870967v-9.909678c0-67.716129 56.154839-123.870968 123.870967-123.870967h275.819355c67.716129 0 123.870968 54.503226 123.870968 123.870967v9.909678z m0-335.27742c0 67.716129-56.154839 123.870968-123.870968 123.870968h-275.819355c-67.716129 0-123.870968-56.154839-123.870967-123.870968v-9.909677c0-67.716129 56.154839-123.870968 123.870967-123.870968h275.819355c67.716129 0 123.870968 56.154839 123.870968 123.870968v9.909677z" p-id="7527"></path></svg>